<svg id="Calque_1" data-name="Calque 1" xmlns="http://www.w3.org/2000/svg" viewBox="0 0 766.57 140.87"><defs><style>.cls-1{fill:#004851;}</style></defs><title>shiftbricks</title><rect class="cls-1" x="27.56" y="90.52" width="141.44" height="26.93" rx="13.46"/><rect class="cls-1" x="65.42" y="56.23" width="103.59" height="26.93" rx="13.46"/><rect class="cls-1" x="105.77" y="21.94" width="63.24" height="26.93" rx="13.46"/><path class="cls-1" d="M230.76,98a18.67,18.67,0,0,1-3.06,10.66,20.17,20.17,0,0,1-8.64,7.08,31.58,31.58,0,0,1-13.13,2.54,34.36,34.36,0,0,1-14.24-2.73,23.77,23.77,0,0,1-9.62-7.61,22.38,22.38,0,0,1-3.13-6,4.13,4.13,0,0,1,3.9-5.48h3a4.18,4.18,0,0,1,3.87,2.71,16.09,16.09,0,0,0,1.95,3.53,15,15,0,0,0,5.65,4.61,19.79,19.79,0,0,0,8.78,1.76,18.21,18.21,0,0,0,7.54-1.37,10.14,10.14,0,0,0,4.48-3.7,9.22,9.22,0,0,0,1.5-5.07q0-4-1.89-6.11a13,13,0,0,0-5.52-3.32,60.17,60.17,0,0,0-8.84-2.14,71.85,71.85,0,0,1-8.45-2.08,29.06,29.06,0,0,1-7.41-3.45,16.52,16.52,0,0,1-5.14-5.26,14.56,14.56,0,0,1-1.88-7.67,17.71,17.71,0,0,1,2.86-10,19,19,0,0,1,8.25-6.82,29.84,29.84,0,0,1,12.55-2.47q10.53,0,17,5.07a19.32,19.32,0,0,1,6.44,9.18,4.14,4.14,0,0,1-3.89,5.51h-2.55a4.05,4.05,0,0,1-3.78-2.78,10.9,10.9,0,0,0-3.57-5q-3.57-2.79-9.81-2.79t-9.3,2.47a7.82,7.82,0,0,0-3.18,6.5,6.81,6.81,0,0,0,1.75,4.61,13.75,13.75,0,0,0,5.2,3.45A42.23,42.23,0,0,0,207,78.22a71.39,71.39,0,0,1,11.83,3.12,20.51,20.51,0,0,1,8.64,5.78Q230.76,91,230.76,98Z"/><path class="cls-1" d="M728.91,98a18.67,18.67,0,0,1-3.06,10.66,20.05,20.05,0,0,1-8.64,7.08,31.55,31.55,0,0,1-13.13,2.54,34.36,34.36,0,0,1-14.24-2.73,23.83,23.83,0,0,1-9.62-7.61,22.47,22.47,0,0,1-3.05-5.8,4.28,4.28,0,0,1,4.05-5.7h2.65a4.34,4.34,0,0,1,4,2.8,15.55,15.55,0,0,0,1.91,3.44,15.09,15.09,0,0,0,5.65,4.61,19.82,19.82,0,0,0,8.78,1.76,18.18,18.18,0,0,0,7.54-1.37,10.08,10.08,0,0,0,4.48-3.7,9.22,9.22,0,0,0,1.5-5.07q0-4-1.89-6.11a12.83,12.83,0,0,0-5.52-3.32,59.85,59.85,0,0,0-8.84-2.14A71.85,71.85,0,0,1,693,85.24a29.39,29.39,0,0,1-7.41-3.45,16.52,16.52,0,0,1-5.14-5.26,14.65,14.65,0,0,1-1.88-7.67,17.71,17.71,0,0,1,2.86-10,19.07,19.07,0,0,1,8.25-6.82,29.84,29.84,0,0,1,12.55-2.47q10.53,0,17,5.07a19.17,19.17,0,0,1,6.36,9,4.29,4.29,0,0,1-4,5.72h-2a4.31,4.31,0,0,1-4.09-2.78,10.84,10.84,0,0,0-3.58-5q-3.57-2.79-9.81-2.79t-9.3,2.47a7.82,7.82,0,0,0-3.18,6.5,6.81,6.81,0,0,0,1.75,4.61,13.83,13.83,0,0,0,5.2,3.45,42.23,42.23,0,0,0,8.52,2.34A71.13,71.13,0,0,1,717,81.34a20.51,20.51,0,0,1,8.64,5.78Q728.91,91,728.91,98Z"/><path class="cls-1" d="M672.18,116.7h-6.51a2.77,2.77,0,0,1-2.07-1L635.72,83.68a2.72,2.72,0,0,1-.68-1.8v30.49a4.32,4.32,0,0,1-4.32,4.33h-2.27a4.33,4.33,0,0,1-4.33-4.33V27.42a4.32,4.32,0,0,1,4.33-4.32h2.27A4.31,4.31,0,0,1,635,27.42V80a2.75,2.75,0,0,1,.77-1.9L660.89,52a2.71,2.71,0,0,1,2-.84h5.73a2.74,2.74,0,0,1,2,4.65L648,79.07a2.74,2.74,0,0,0-.07,3.74l26.34,29.31A2.74,2.74,0,0,1,672.18,116.7Z"/><path class="cls-1" d="M607.73,96h1.71a4.18,4.18,0,0,1,3.81,5.9,26.69,26.69,0,0,1-8,10.15q-7.86,6.18-19.43,6.18A32.29,32.29,0,0,1,569.2,114a30.16,30.16,0,0,1-11.5-12,37.16,37.16,0,0,1-4.16-17.87,37.78,37.78,0,0,1,4.16-18.14,30.2,30.2,0,0,1,11.5-12,32.29,32.29,0,0,1,16.58-4.29q11.7,0,19.5,6A26,26,0,0,1,613.33,66a4.2,4.2,0,0,1-3.83,5.88h-2.43a4.24,4.24,0,0,1-3.91-2.71,14.33,14.33,0,0,0-5.55-6.78,21,21,0,0,0-12-3.38,20.37,20.37,0,0,0-10.4,2.79,20,20,0,0,0-7.67,8.32q-2.87,5.53-2.86,13.85a32.14,32.14,0,0,0,1.69,10.85,22.75,22.75,0,0,0,4.55,7.87,19.06,19.06,0,0,0,6.7,4.74,20.14,20.14,0,0,0,8,1.63,22,22,0,0,0,8.38-1.56,16.88,16.88,0,0,0,7.12-5.31,11.8,11.8,0,0,0,1.77-3A5.17,5.17,0,0,1,607.73,96Z"/><path class="cls-1" d="M322.27,29.73a7.21,7.21,0,0,1-2.2,5.39,7.77,7.77,0,0,1-10.73,0,7.31,7.31,0,0,1-2.14-5.39,6.9,6.9,0,0,1,2.14-5.27,8.16,8.16,0,0,1,10.73,0A6.81,6.81,0,0,1,322.27,29.73Z"/><path class="cls-1" d="M545.61,29.73a7.22,7.22,0,0,1-2.21,5.39,7.51,7.51,0,0,1-12.87-5.39,6.91,6.91,0,0,1,2.15-5.27,8.15,8.15,0,0,1,10.72,0A6.82,6.82,0,0,1,545.61,29.73Z"/><path class="cls-1" d="M525.71,51.72V59a2.1,2.1,0,0,1-2.1,2.1h-1.93a28.29,28.29,0,0,0-7.93,1.1,18.19,18.19,0,0,0-6.69,3.58,16.07,16.07,0,0,0-4.55,6.69,29.22,29.22,0,0,0-1.63,10.47v29.6a4.2,4.2,0,0,1-4.2,4.2h-2.52a4.2,4.2,0,0,1-4.2-4.2V55.37a4.2,4.2,0,0,1,4.19-4.19h1.75A4.18,4.18,0,0,1,500.08,55a.17.17,0,0,1,0,.07l.29,4.73.24,3.82c.08-.17.17-.34.26-.5a24.91,24.91,0,0,1,5.4-7,23.7,23.7,0,0,1,8.32-4.81,31.58,31.58,0,0,1,8.84-1.62,5.49,5.49,0,0,1,.58,0h0A2.11,2.11,0,0,1,525.71,51.72Z"/><path class="cls-1" d="M388.3,60.41V96.94c0,4.07.83,6.82,2.47,8.25s4.55,2.15,8.71,2.15h2.83a4.2,4.2,0,0,1,4.19,4.19v1a4.2,4.2,0,0,1-4.19,4.19h-5.95a25.9,25.9,0,0,1-10.14-1.82,13,13,0,0,1-6.56-6.18q-2.28-4.35-2.28-11.76V60.41h-7.15a4.29,4.29,0,0,1-4.29-4.29v-.65a4.29,4.29,0,0,1,4.29-4.29h7.15l.43-4.77.64-7.11v0a4.38,4.38,0,0,1,4.36-4h1.12a4.37,4.37,0,0,1,4.37,4.37V51.18H403a4.29,4.29,0,0,1,4.29,4.29v.65A4.29,4.29,0,0,1,403,60.41Z"/><rect class="cls-1" x="309.27" y="51.18" width="10.93" height="65.52" rx="4.28"/><path class="cls-1" d="M297.7,77.7v34.77a4.23,4.23,0,0,1-4.23,4.23h-2.33a4.23,4.23,0,0,1-4.23-4.23V78.87q0-9.89-4.16-14.89t-12.09-5A18.68,18.68,0,0,0,253.5,69.51,27.05,27.05,0,0,0,250.9,82v30.58a4.12,4.12,0,0,1-4.12,4.13h-2.67a4.13,4.13,0,0,1-4.13-4.13V27.22a4.12,4.12,0,0,1,4.13-4.12h2.67a4.11,4.11,0,0,1,4.12,4.12v35A23.69,23.69,0,0,1,260.06,53,25.56,25.56,0,0,1,273,49.62a27.06,27.06,0,0,1,13.13,3.05l.78.45a20.47,20.47,0,0,1,7.8,8.85Q297.7,68.21,297.7,77.7Z"/><path class="cls-1" d="M477.16,66.32a30,30,0,0,0-27.76-16.7q-8.58,0-14.43,3.64A27,27,0,0,0,426,62V27.28a4.18,4.18,0,0,0-4.18-4.18h-2.55a4.19,4.19,0,0,0-4.19,4.18v85.23a4.2,4.2,0,0,0,4.19,4.19h1.84a4.19,4.19,0,0,0,4.18-3.84l.58-7a1.37,1.37,0,0,0,.13.2,24.45,24.45,0,0,0,5.46,6.17,27.1,27.1,0,0,0,7.87,4.35,29.5,29.5,0,0,0,10.07,1.63A31,31,0,0,0,466,113.84a30.1,30.1,0,0,0,11.12-12.22,38.52,38.52,0,0,0,4-17.68A38.13,38.13,0,0,0,477.16,66.32ZM467.15,97a21.39,21.39,0,0,1-7.74,8.65,20.71,20.71,0,0,1-11.31,3.12A20.5,20.5,0,0,1,429,97a29.17,29.17,0,0,1-2.73-13.06,29.27,29.27,0,0,1,2.73-13,21.57,21.57,0,0,1,30.42-8.71,21.3,21.3,0,0,1,7.74,8.71,28.74,28.74,0,0,1,2.79,13A28.64,28.64,0,0,1,467.15,97Z"/><path class="cls-1" d="M364,55.35v.89a4.17,4.17,0,0,1-4.17,4.17H347.48v52a4.3,4.3,0,0,1-4.29,4.3h-2.33a4.31,4.31,0,0,1-4.3-4.3v-52h-5.84a4.17,4.17,0,0,1-4.17-4.17v-.89a4.17,4.17,0,0,1,4.17-4.17h5.84V41a22,22,0,0,1,2.08-10.21A12.91,12.91,0,0,1,344.82,25a16.71,16.71,0,0,1,2.66-.95,27,27,0,0,1,7.41-.93h3.3a4.11,4.11,0,0,1,4.11,4.11v1.16a4.11,4.11,0,0,1-3.69,4.09h-2l-.87,0h-.11c-2.7.12-4.69.77-6,1.93s-2.15,3.59-2.15,6.89v9.88h12.34A4.17,4.17,0,0,1,364,55.35Z"/><path class="cls-1" d="M358.61,32.46l-.42,0h-2.48l.87,0Z"/><rect class="cls-1" x="532.61" y="51.18" width="10.92" height="65.52" rx="4.2"/></svg>